<!--?xml version="1.0" standalone="no"?-->
              <svg id="sw-js-blob-svg" viewBox="0 0 100 100" xmlns="http://www.w3.org/2000/svg" version="1.1">
                    <defs> 
                        <linearGradient id="sw-gradient" x1="0" x2="1" y1="1" y2="0">
                            <stop id="stop1" stop-color="rgba(248, 117, 55, 1)" offset="0%"></stop>
                            <stop id="stop2" stop-color="rgba(251, 168, 31, 1)" offset="100%"></stop>
                        </linearGradient>
                    </defs>
                <path fill="url(#sw-gradient)" d="M21.9,-36.6C26.6,-31.1,27.5,-22,31,-14.2C34.5,-6.4,40.6,0.2,38.2,4.3C35.8,8.5,24.9,10.3,18.9,15.4C12.9,20.5,12,28.9,7.5,34.1C3.1,39.3,-4.8,41.3,-12,39.7C-19.2,38.1,-25.7,33,-29.4,26.6C-33.1,20.2,-34.1,12.6,-31.4,6.8C-28.8,0.9,-22.6,-3.3,-20.2,-9.6C-17.9,-15.8,-19.4,-24.2,-16.7,-30.7C-14,-37.1,-7,-41.6,0.8,-42.8C8.6,-44.1,17.2,-42.1,21.9,-36.6Z" width="100%" height="100%" transform="translate(50 50)" stroke-width="0" style="transition: all 0.3s ease 0s;"></path>
              </svg>