<?xml version="1.0" encoding="UTF-8" standalone="no"?><svg xmlns="http://www.w3.org/2000/svg" xmlns:xlink="http://www.w3.org/1999/xlink" fill="#000000" height="275.1" preserveAspectRatio="xMidYMid meet" version="1" viewBox="-0.8 -3.6 485.0 275.1" width="485" zoomAndPan="magnify"><g id="change1_1"><path d="M84.62,219.02c-19.29-10-37.55-21.83-54.31-35.29c-16.74-13.44-29.79-33.06-30.3-54.53 c-0.77-32.76,27.63-69.14,51.76-89.16c26.63-22.1,60.86-34.1,94.92-38.17c45.92-5.49,92.29,2.04,137.89,9.72 c57.27,9.65,125.28,18.79,171.05,57.33c11.86,9.98,24.23,21.39,27.04,36.63c1.52,8.27,0,16.82-2.52,24.84 c-15.79,50.36-78.42,80.82-123.86,101.68C270.5,271.48,167.87,262.19,84.62,219.02z" fill="#cec2c0"/></g></svg>